# xmcd
#
# Track frame offsets: 
#        150
#        30914
#        52203
#        66043
#        86757
#        114165
#        140955
#        153451
#        167558
#        193559
#        214766
#        237357
#        254240
#        273805
#
# Disc length: 3841 seconds
#
# Revision: 3
# Processed by: cddbd v1.5.2PL0 Copyright (c) Steve Scherf et al.
# Submitted via: ExactAudioCopyFreeDBPlugin 1.0
#
DISCID=ca0eff0e
DTITLE=Hans Theessink - Songs from the Southland
DYEAR=2003
DGENRE=Blues
TTITLE0=St. James Infirmery
TTITLE1=My Girl
TTITLE2=Mercury Blues
TTITLE3=A Hundred And Ten In The Shade
TTITLE4=From Four Til Late
TTITLE5=61 Highway
TTITLE6=He Was A Friend Of Mine
TTITLE7=Green Green Rocky Road
TTITLE8=Hard Time Killing Floor
TTITLE9=M and O Blues
TTITLE10=Rained Five Days
TTITLE11=I'm So Lonesome I Could Cry
TTITLE12=Hesitation Blues
TTITLE13=Frankie and Albert
EXTD=
EXTT0=
EXTT1=
EXTT2=
EXTT3=
EXTT4=
EXTT5=
EXTT6=
EXTT7=
EXTT8=
EXTT9=
EXTT10=
EXTT11=
EXTT12=
EXTT13=
PLAYORDER=
